<svg xmlns="http://www.w3.org/2000/svg" viewBox="0 0 256 256" role="img" aria-label="b">
  <defs>
    <style>
      .fill { fill: #000; }
    </style>
  </defs>

  <!-- Vertical stem with slight flare and serif -->
  <path class="fill" d="
    M88 16
    C88 12, 90 8, 94 8
    L110 8
    C114 8, 116 12, 116 16
    L116 132
    C129 118, 147 110, 170 110
    C212 110, 240 139, 240 178
    C240 218, 210 248, 166 248
    C141 248, 122 238, 108 221
    L108 240
    C108 244, 106 248, 102 248
    L84 248
    C80 248, 78 244, 78 240
    L78 34
    C70 42, 59 47, 44 49
    L44 32
    C65 28, 79 23, 88 16
    Z" />

  <!-- Bowl (thick–thin contrast, slightly pointed join) -->
  <path class="fill" d="
    M166 132
    C192 132, 210 151, 210 178
    C210 206, 191 224, 166 224
    C139 224, 120 205, 120 178
    C120 150, 139 132, 166 132
    Z" />
</svg>
